<?xml version="1.0" standalone="no"?>
<!DOCTYPE svg PUBLIC "-//W3C//DTD SVG 20010904//EN"
 "http://www.w3.org/TR/2001/REC-SVG-20010904/DTD/svg10.dtd">
<svg version="1.0" xmlns="http://www.w3.org/2000/svg"
 width="1200.000000pt" height="617.000000pt" viewBox="0 0 1200.000000 617.000000"
 preserveAspectRatio="xMidYMid meet">

<g transform="translate(0.000000,617.000000) scale(0.100000,-0.100000)"
fill="#000000" stroke="none">
<path d="M8380 5902 c-40 -19 -70 -71 -70 -119 0 -31 -2 -33 -35 -33 -31 0
-35 -3 -35 -25 0 -22 4 -25 35 -25 l35 0 0 -150 0 -150 30 0 30 0 0 150 0 150
50 0 c47 0 50 2 50 25 0 23 -3 25 -50 25 l-50 0 0 38 c0 57 22 82 74 82 32 0
46 5 50 17 14 35 -56 45 -114 15z"/>
<path d="M5330 5875 c-23 -28 9 -72 45 -59 36 14 24 74 -15 74 -10 0 -23 -7
-30 -15z"/>
<path d="M6882 5878 c-30 -30 3 -77 40 -57 22 12 24 55 2 63 -22 8 -28 8 -42
-6z"/>
<path d="M7123 5870 c-20 -8 -23 -17 -23 -65 l0 -55 -35 0 c-31 0 -35 -3 -35
-25 0 -22 4 -25 35 -25 l35 0 0 -129 c0 -160 8 -175 91 -176 49 0 54 2 57 23
3 19 -1 22 -30 22 -53 0 -58 11 -58 142 l0 118 45 0 c41 0 45 2 45 25 0 23 -4
25 -45 25 l-45 0 0 65 c0 68 -1 69 -37 55z"/>
<path d="M4390 5684 c0 -207 7 -236 62 -268 18 -11 58 -21 97 -23 55 -4 74 -1
111 19 77 40 84 64 88 276 l4 182 -31 0 -30 0 -3 -191 -3 -191 -28 -24 c-22
-19 -39 -24 -82 -24 -30 0 -65 5 -78 11 -47 21 -52 42 -55 237 l-4 182 -24 0
-24 0 0 -186z"/>
<path d="M4900 5575 l0 -175 30 0 30 0 0 105 c0 127 13 167 64 192 29 13 40
14 61 5 37 -17 45 -49 45 -183 l0 -119 25 0 25 0 0 140 c0 189 -11 210 -107
210 -39 0 -50 -5 -84 -39 l-39 -39 0 39 c0 35 -3 39 -25 39 l-25 0 0 -175z"/>
<path d="M5330 5575 l0 -175 30 0 30 0 0 175 0 175 -30 0 -30 0 0 -175z"/>
<path d="M5492 5737 c2 -8 30 -86 63 -175 60 -162 60 -162 91 -162 34 0 34 0
135 273 l28 77 -29 0 c-32 0 -36 -9 -96 -192 -16 -48 -31 -88 -34 -88 -3 0
-27 63 -53 140 -48 138 -49 140 -79 140 -19 0 -28 -4 -26 -13z"/>
<path d="M5939 5727 c-48 -32 -71 -85 -71 -163 1 -71 19 -113 64 -147 54 -40
208 -30 208 14 0 18 -4 19 -37 13 -115 -22 -165 4 -179 95 l-6 40 118 3 119 3
-3 39 c-7 83 -53 126 -135 126 -29 0 -56 -8 -78 -23z m140 -43 c12 -15 21 -35
21 -45 0 -17 -9 -19 -85 -19 -79 0 -85 1 -85 20 0 64 109 95 149 44z"/>
<path d="M6280 5575 l0 -175 30 0 30 0 0 105 c0 144 24 195 89 195 16 0 21 6
21 25 0 51 -79 22 -106 -39 l-13 -31 -1 48 c0 43 -2 47 -25 47 l-25 0 0 -175z"/>
<path d="M6594 5740 c-31 -12 -64 -59 -64 -90 0 -38 33 -76 78 -90 62 -20 82
-37 82 -71 0 -25 -6 -32 -35 -45 -23 -9 -49 -12 -76 -8 -39 7 -41 6 -37 -17 3
-21 9 -24 47 -27 55 -4 124 21 145 53 9 13 16 39 16 58 0 40 -26 67 -90 91
-58 23 -70 33 -70 62 0 40 27 57 87 52 50 -4 53 -3 53 19 0 21 -4 23 -57 22
-32 0 -68 -4 -79 -9z"/>
<path d="M6880 5575 l0 -175 25 0 25 0 0 175 0 175 -25 0 -25 0 0 -175z"/>
<path d="M7320 5747 c0 -3 29 -82 65 -178 l65 -173 -16 -48 c-19 -57 -54 -88
-100 -88 -27 0 -34 -4 -34 -19 0 -23 29 -31 75 -21 68 15 75 29 185 322 l78
209 -32 -3 c-30 -3 -32 -5 -76 -135 -25 -73 -47 -133 -50 -133 -3 0 -25 60
-50 133 -45 130 -46 132 -78 135 -18 2 -32 1 -32 -1z"/>
<path d="M7965 5738 c-32 -18 -66 -51 -82 -81 -19 -38 -19 -147 1 -185 48 -93
171 -109 247 -33 82 81 74 238 -14 291 -36 22 -119 27 -152 8z m123 -51 c22
-18 42 -71 42 -111 0 -78 -43 -136 -100 -136 -91 0 -136 111 -88 215 22 48
105 67 146 32z"/>
<path d="M5660 4845 l0 -255 30 0 30 0 0 255 0 255 -30 0 -30 0 0 -255z"/>
<path d="M6650 5020 l0 -80 -53 0 c-116 0 -187 -73 -187 -191 0 -95 34 -153
97 -165 49 -9 83 3 121 43 l33 36 -6 -37 c-7 -35 -6 -36 24 -36 l31 0 0 255 0
255 -30 0 -30 0 0 -80z m-22 -126 c20 -6 22 -12 22 -85 0 -122 -32 -179 -101
-179 -56 0 -79 34 -79 117 0 38 6 76 15 93 25 49 82 70 143 54z"/>
<path d="M5860 5065 c-23 -28 9 -72 45 -59 36 14 24 74 -15 74 -10 0 -23 -7
-30 -15z"/>
<path d="M7722 5068 c-30 -30 3 -77 40 -57 22 12 24 55 2 63 -22 8 -28 8 -42
-6z"/>
<path d="M7074 5051 c-54 -25 -74 -55 -74 -112 0 -61 23 -89 102 -124 80 -35
108 -60 108 -97 0 -67 -46 -94 -139 -85 -56 6 -59 5 -63 -17 -4 -20 0 -25 25
-30 131 -26 237 36 237 140 0 56 -25 84 -107 123 -37 18 -76 40 -85 48 -25 22
-23 78 3 104 18 18 30 20 90 17 69 -3 70 -3 67 22 -3 23 -7 25 -63 28 -42 1
-72 -4 -101 -17z"/>
<path d="M4423 4832 c-46 -126 -83 -232 -83 -236 0 -4 12 -6 27 -4 24 3 31 11
47 56 l19 53 106 -3 106 -3 19 -52 c16 -47 22 -53 47 -53 16 0 29 3 29 8 0 4
-37 109 -82 234 l-83 228 -35 0 -35 0 -82 -228z m156 49 c23 -63 41 -120 41
-128 0 -10 -21 -13 -85 -13 -47 0 -85 3 -85 7 0 10 84 252 87 250 1 -1 20 -54
42 -116z"/>
<path d="M4840 4675 l0 -265 25 0 c24 0 24 2 27 87 l3 88 36 -3 c56 -5 119 16
155 52 70 70 65 239 -8 290 -26 18 -89 21 -121 5 -12 -6 -32 -23 -44 -37 l-23
-27 0 38 c0 33 -3 37 -25 37 l-25 0 0 -265z m204 202 c43 -43 46 -159 5 -211
-24 -31 -75 -46 -121 -37 l-33 7 1 85 c1 91 16 135 56 163 32 23 65 20 92 -7z"/>
<path d="M5250 4675 l0 -265 30 0 30 0 0 88 0 87 58 0 c132 1 205 107 173 251
-16 68 -54 104 -112 104 -48 0 -76 -13 -106 -49 l-22 -26 -1 38 c0 33 -3 37
-25 37 l-25 0 0 -265z m206 202 c49 -43 44 -176 -9 -225 -21 -20 -53 -27 -109
-24 l-28 2 0 88 c0 98 18 148 60 169 36 18 55 16 86 -10z"/>
<path d="M5860 4765 l0 -175 30 0 30 0 0 175 0 175 -30 0 -30 0 0 -175z"/>
<path d="M6130 4933 c-8 -3 -29 -19 -47 -36 -74 -69 -67 -240 12 -291 59 -39
215 -28 215 15 0 18 -4 19 -37 13 -119 -24 -183 14 -183 107 l0 29 116 0 117
0 -5 52 c-5 44 -11 57 -42 85 -30 28 -43 33 -83 32 -27 0 -55 -3 -63 -6z m103
-45 c9 -7 21 -28 26 -45 l10 -33 -90 0 c-89 0 -90 0 -84 23 13 41 46 67 85 67
20 0 44 -6 53 -12z"/>
<path d="M7453 4924 c-41 -21 -62 -44 -79 -91 -28 -79 -11 -177 38 -218 33
-28 97 -40 153 -28 34 7 41 13 43 37 3 25 2 26 -17 17 -28 -16 -87 -14 -121 4
-36 19 -54 72 -47 136 11 88 60 127 146 113 37 -6 41 -4 41 14 0 11 -7 23 -16
26 -29 11 -109 6 -141 -10z"/>
<path d="M7720 4765 l0 -175 25 0 25 0 0 175 0 175 -25 0 -25 0 0 -175z"/>
<path d="M7960 4918 c-50 -35 -70 -81 -70 -164 0 -57 4 -78 23 -105 29 -44 80
-69 137 -68 77 2 105 12 108 37 3 22 1 23 -35 16 -115 -22 -160 3 -178 100
l-7 36 121 0 121 0 0 28 c-1 44 -36 109 -69 126 -44 23 -112 20 -151 -6z m139
-44 c12 -15 21 -35 21 -45 0 -17 -9 -19 -85 -19 -76 0 -85 2 -85 19 0 10 11
30 25 45 34 37 95 37 124 0z"/>
<path d="M8290 4765 l0 -175 30 0 30 0 0 102 c0 82 4 110 20 144 23 47 64 70
105 60 37 -9 45 -41 45 -182 l0 -124 25 0 25 0 0 150 c0 147 -1 152 -25 175
-19 20 -34 25 -76 25 -48 0 -55 -3 -92 -42 l-39 -41 7 41 c7 42 7 42 -24 42
l-31 0 0 -175z"/>
<path d="M8785 4926 c-66 -30 -95 -84 -95 -178 0 -81 22 -125 74 -149 46 -21
85 -23 138 -9 28 8 35 14 31 29 -4 17 -12 18 -63 14 -56 -5 -60 -4 -91 26 -30
31 -31 34 -27 106 3 61 7 78 27 99 29 31 69 40 116 27 35 -10 36 -9 33 17 -3
25 -6 27 -58 29 -30 2 -68 -3 -85 -11z"/>
<path d="M9086 4921 c-45 -30 -68 -75 -73 -145 -6 -73 19 -143 60 -171 53 -34
217 -27 217 10 0 21 -11 24 -60 15 -54 -10 -110 2 -135 30 -9 10 -20 40 -22
65 l-6 45 117 0 116 0 0 35 c0 44 -21 86 -56 114 -35 28 -117 29 -158 2z m134
-41 c11 -11 20 -31 20 -45 0 -25 -1 -25 -86 -25 -84 0 -85 0 -79 23 20 64 101
91 145 47z"/>
<path d="M9448 4924 c-56 -30 -72 -109 -30 -147 9 -9 43 -25 74 -37 64 -23 79
-47 55 -84 -18 -27 -59 -38 -112 -29 -34 6 -37 4 -33 -18 3 -23 7 -24 70 -23
78 1 113 19 134 70 12 29 12 39 0 68 -12 28 -25 38 -77 58 -51 19 -66 30 -74
52 -14 42 22 69 87 64 44 -3 48 -1 48 20 0 20 -4 22 -57 22 -32 -1 -70 -7 -85
-16z"/>
<path d="M66 4003 c16 -91 69 -281 124 -444 64 -191 128 -346 270 -655 135
-293 225 -509 267 -644 l38 -120 5618 0 5617 0 0 950 0 950 -5970 0 -5971 0 7
-37z m3855 -288 c65 -17 179 -70 179 -83 0 -4 -28 -38 -63 -75 l-62 -69 -45
20 c-166 74 -358 35 -485 -99 -177 -186 -171 -480 15 -652 134 -124 306 -156
468 -86 l47 21 62 -69 c35 -37 63 -72 63 -76 0 -12 -137 -72 -200 -88 -75 -18
-230 -16 -310 5 -117 30 -207 82 -295 171 -130 130 -189 269 -189 450 0 121
14 184 65 292 130 272 449 416 750 338z m3309 -620 l0 -635 -105 0 -105 0 0
628 c0 346 3 632 7 635 3 4 51 7 105 7 l98 0 0 -635z m-5150 535 l0 -90 -175
0 -175 0 0 -540 0 -540 -105 0 -105 0 0 540 0 540 -175 0 -175 0 0 90 0 90
455 0 455 0 0 -90z m870 5 l0 -85 -225 0 -225 0 0 -175 0 -175 183 -2 182 -3
3 -87 3 -88 -186 0 -185 0 0 -190 0 -190 225 0 225 0 0 -90 0 -90 -330 0 -330
0 0 630 0 630 330 0 330 0 0 -85z m1580 -175 l0 -260 290 0 290 0 0 260 0 260
105 0 105 0 0 -630 0 -630 -105 0 -105 0 0 280 0 280 -290 0 -290 0 0 -280 0
-280 -105 0 -105 0 0 630 0 630 105 0 105 0 0 -260z m1603 -83 c113 -189 237
-400 274 -469 l68 -125 -3 469 -4 468 101 0 101 0 0 -630 0 -630 -134 0 -134
0 -213 358 c-117 196 -241 409 -276 472 l-62 114 6 -472 6 -472 -106 0 -107 0
0 630 0 630 139 0 138 0 206 -343z m1659 59 l3 -285 220 284 220 284 128 1
c100 0 127 -3 121 -12 -4 -7 -115 -144 -245 -305 l-238 -291 255 -322 c140
-177 254 -324 254 -326 0 -2 -62 -4 -137 -4 l-138 0 -220 301 -220 300 -3
-301 -2 -300 -105 0 -105 0 0 630 0 630 105 0 105 0 2 -284z m1120 -148 c3
-416 4 -435 24 -479 51 -109 140 -169 254 -169 113 0 203 59 252 165 23 49 23
55 26 483 l3 432 109 0 110 0 0 -397 c-1 -458 -6 -518 -55 -621 -113 -239
-419 -339 -669 -217 -91 44 -135 81 -185 156 -79 119 -81 131 -81 635 l0 444
105 0 104 0 3 -432z m1549 43 c71 -211 138 -423 151 -472 21 -82 38 -114 38
-71 0 28 54 197 182 575 l121 357 123 0 c120 0 124 -1 129 -22 5 -25 185
-1220 185 -1231 0 -4 -49 -7 -110 -7 -60 0 -110 2 -110 4 0 2 -24 170 -54 372
-30 203 -60 417 -67 476 l-13 107 -22 -87 c-19 -76 -129 -425 -240 -764 l-36
-108 -108 0 -109 0 -127 388 c-69 213 -137 428 -150 477 -13 50 -23 81 -24 70
-1 -43 -93 -828 -105 -902 l-6 -33 -106 0 -106 0 5 33 c3 17 45 301 94 630
l88 598 125 -3 124 -3 128 -384z"/>
<path d="M814 1873 c37 -192 44 -640 12 -868 -37 -272 -109 -586 -195 -858
-23 -70 -41 -132 -41 -137 0 -6 1059 -10 2865 -10 l2865 0 0 950 0 950 -2756
0 -2756 0 6 -27z m730 -300 c25 -82 216 -860 222 -901 9 -68 20 -74 28 -13 3
27 60 245 126 485 66 241 120 439 120 442 0 2 51 4 113 4 l113 0 121 -437 c67
-241 127 -465 134 -498 l12 -60 22 110 c20 92 194 812 211 868 5 15 19 17 105
17 72 0 99 -3 99 -12 0 -11 -301 -1194 -316 -1240 -5 -16 -20 -18 -124 -18
-103 0 -121 2 -129 18 -15 28 -229 821 -243 899 -6 40 -14 71 -16 69 -1 -2
-11 -44 -21 -92 -18 -87 -215 -826 -232 -872 -9 -22 -12 -23 -126 -20 l-117 3
-73 285 c-40 157 -113 441 -162 633 l-89 347 108 0 c95 0 109 -2 114 -17z
m1874 -615 l-3 -633 -100 0 -100 0 -3 633 -2 632 105 0 105 0 -2 -632z m990
545 l-3 -88 -227 -3 -228 -2 0 -175 0 -175 185 0 185 0 0 -85 0 -85 -185 0
-185 0 0 -195 0 -195 230 0 231 0 -3 -87 -3 -88 -327 -3 -328 -2 0 635 0 635
330 0 331 0 -3 -87z m765 -282 c120 -200 245 -413 276 -473 l58 -108 -5 475
-5 475 102 0 101 0 -2 -632 -3 -633 -129 0 -130 0 -237 399 c-131 219 -256
435 -279 480 l-42 81 3 -480 4 -480 -100 0 -100 0 -3 620 c-1 341 0 626 3 633
3 9 37 12 137 10 l132 -3 219 -364z"/>
</g>
</svg>
